<svg version="1.1" id="Layer_1" xmlns="http://www.w3.org/2000/svg" xmlns:xlink="http://www.w3.org/1999/xlink" x="0px" y="0px"
	 width="100%" viewBox="0 0 500 500" enable-background="new 0 0 500 500" xml:space="preserve">
<path fill="#000000" opacity="1.000000" stroke="none" 
	d="
M490.025665,501.000000 
	C326.687653,501.000000 163.855255,501.000000 1.017155,501.000000 
	C1.011436,334.341919 1.011436,167.683868 1.011436,1.012897 
	C167.657089,1.012897 334.314178,1.012897 500.985657,1.012897 
	C500.985657,167.656113 500.985657,334.312225 500.985657,501.000000 
	C497.510468,501.000000 494.020905,501.000000 490.025665,501.000000 
M194.900009,307.182983 
	C195.230789,307.489868 195.561569,307.796783 196.044525,308.596313 
	C196.333252,308.760193 196.621964,308.924072 197.128723,309.666351 
	C197.255081,309.174377 197.381439,308.682404 196.884033,307.192932 
	C196.239258,307.145172 195.594467,307.097382 194.900009,307.182983 
M379.899567,307.184967 
	C380.230469,307.491241 380.561371,307.797485 381.044373,308.596161 
	C381.332947,308.759888 381.621521,308.923615 382.128632,309.666168 
	C382.254395,309.173676 382.380127,308.681183 381.882660,307.191376 
	C381.237976,307.144562 380.593292,307.097778 379.899567,307.184967 
M193.295380,303.018524 
	C193.295380,303.018524 193.151077,302.885559 192.909332,302.161530 
	C190.603058,299.473541 188.296783,296.785583 185.800964,293.451904 
	C185.537491,292.628448 185.274002,291.805023 185.139145,290.388062 
	C185.485596,289.712677 185.832047,289.037292 186.178497,288.361908 
	C185.753326,288.154999 185.328156,287.948059 184.902985,287.741150 
	C184.559174,288.729797 184.215378,289.718475 183.291672,291.263916 
	C183.658752,299.081543 184.025833,306.899139 184.392914,314.716766 
	C184.930923,314.702209 185.468948,314.687653 186.006973,314.673096 
	C186.006973,309.799469 186.006973,304.925873 186.648468,299.919586 
	C187.719604,300.482056 188.814972,301.003754 189.853561,301.620972 
	C190.574829,302.049652 191.218002,302.609680 192.046143,303.600403 
	C192.332596,303.763977 192.619049,303.927551 192.982437,304.940674 
	C193.585175,305.477905 194.187912,306.015167 194.790634,306.552399 
	C195.045334,306.295319 195.300034,306.038239 195.554718,305.781158 
	C194.830032,304.880768 194.105331,303.980377 193.295380,303.018524 
M402.047668,314.710571 
	C402.362213,313.632172 402.676758,312.553741 402.991302,311.475342 
	C402.641846,311.415222 402.292389,311.355133 401.942963,311.295013 
	C401.862579,311.830292 401.782227,312.365601 401.153290,312.869507 
	C400.917297,313.149933 400.681305,313.430359 400.445312,313.710785 
	C400.843719,313.845642 401.242096,313.980499 402.047668,314.710571 
M232.434006,311.992981 
	C232.057404,311.987976 231.680801,311.983002 231.282898,311.191986 
	C230.015945,302.991516 221.915344,304.642090 217.130737,301.579285 
	C219.500412,303.951477 222.631027,305.189819 225.214050,307.149841 
	C227.167938,308.632446 228.422638,311.036438 229.930710,313.894348 
	C229.819550,314.755859 229.708374,315.617371 228.804932,316.166199 
	C224.593475,315.414062 220.382019,314.661926 215.554108,313.799713 
	C215.750687,314.373718 215.797775,316.185425 216.692078,316.840485 
	C221.224792,320.160675 227.028107,319.896027 230.320953,316.093384 
	C231.214371,314.729340 232.107788,313.365265 233.489441,311.992188 
	C233.766525,311.867401 234.043625,311.742615 234.320709,311.617828 
	C234.231430,311.491821 234.142151,311.365814 234.052887,311.239777 
	C233.701721,311.492798 233.350555,311.745789 232.434006,311.992981 
M232.133255,295.682434 
	C232.621475,296.081970 233.109695,296.481476 233.597931,296.881012 
	C233.778366,296.698151 233.958801,296.515320 234.139252,296.332458 
	C233.664749,295.689056 233.190262,295.045685 232.289841,293.840302 
	C230.331055,289.900574 227.809509,287.446625 223.108078,290.476135 
	C226.095703,292.036896 229.010559,293.559631 232.133255,295.682434 
M171.133377,294.680237 
	C171.623611,295.076111 172.113846,295.471954 172.604080,295.867828 
	C172.784149,295.678680 172.964203,295.489563 173.144272,295.300446 
	C172.651840,294.664368 172.159409,294.028290 171.224792,292.809509 
	C170.661423,291.416992 170.098053,290.024475 169.664749,288.953461 
	C167.511963,289.227600 164.388992,289.625275 159.781311,290.212006 
	C164.468018,291.835480 167.700241,292.955139 171.133377,294.680237 
M370.142029,290.375885 
	C370.478912,289.679779 370.815796,288.983673 371.152679,288.287598 
	C370.763672,288.053375 370.374634,287.819153 369.985626,287.584930 
	C369.320312,288.717072 368.654999,289.849213 368.019806,291.835297 
	C368.325195,297.723267 368.614410,303.612152 368.945831,309.498657 
	C369.045532,311.269287 369.262817,313.033295 369.426208,314.800354 
	C369.952850,314.755951 370.479523,314.711548 371.006195,314.667145 
	C371.006195,309.127441 371.006195,303.587738 371.678619,298.224396 
	C374.216827,301.158936 376.755035,304.093475 379.293243,307.028015 
	C379.791077,306.605682 380.288910,306.183350 380.786743,305.761017 
	C377.882996,302.153809 374.979218,298.546631 371.917328,294.281097 
	C371.281708,293.181213 370.646088,292.081360 370.142029,290.375885 
M141.824417,296.277954 
	C142.162231,296.389191 142.500046,296.500427 142.837860,296.611664 
	C142.594055,296.040771 142.350235,295.469910 142.197327,294.085724 
	C141.181580,292.423187 140.488571,289.756989 139.083527,289.305237 
	C136.077606,288.338715 132.701248,288.344482 129.481949,288.384216 
	C128.890442,288.391510 128.324112,290.440125 128.315369,290.456848 
	C133.074600,292.404022 137.260010,294.116394 141.824417,296.277954 
M278.373596,310.584595 
	C278.091309,310.131287 277.809052,309.677979 277.526764,309.224701 
	C277.270569,309.355835 277.014343,309.487000 276.758118,309.618134 
	C277.132141,310.450043 277.506134,311.281921 277.955322,312.837250 
	C282.711456,319.186646 293.633209,321.322083 300.484009,317.034180 
	C301.381317,316.472595 301.535797,314.724213 301.982269,313.650757 
	C296.660583,314.413116 292.336273,315.032623 287.800293,315.169678 
	C287.694275,315.095154 287.588257,315.020660 287.482239,314.946167 
	C287.650269,315.186188 287.818329,315.426208 287.097076,315.865570 
	C284.281616,314.285950 281.466156,312.706329 278.373596,310.584595 
M341.217102,291.788666 
	C344.923157,293.737488 348.629181,295.686310 351.658508,297.279297 
	C350.656494,292.354309 346.552887,288.879822 340.778534,288.789093 
	C336.469635,288.721405 334.311859,290.548859 334.494019,295.154327 
	C336.650635,293.795898 338.673431,292.521729 341.217102,291.788666 
M125.888351,317.999725 
	C129.404037,318.445801 132.919739,318.891876 136.499527,319.346100 
	C136.499527,317.863312 136.499527,316.896698 136.499527,316.154999 
	C133.934280,315.731781 131.056122,315.591492 128.430740,314.703735 
	C126.738060,314.131348 125.416245,312.462219 123.928223,311.284607 
	C123.405952,311.831177 122.883675,312.377747 122.361404,312.924316 
	C123.277222,314.506226 124.193031,316.088165 125.888351,317.999725 
M157.992172,294.738129 
	C157.992172,300.939148 157.992172,307.140198 157.992172,313.341217 
	C158.651489,313.315063 159.310806,313.288910 159.970123,313.262726 
	C159.970123,305.844360 160.013382,298.425354 159.910797,291.008423 
	C159.899063,290.160889 159.215805,288.754791 158.592453,288.596191 
	C157.072754,288.209625 155.405304,288.391907 153.797653,288.400696 
	C153.722534,288.401154 153.650360,288.939392 153.541687,289.364655 
	C154.922806,289.431305 156.267929,289.496216 157.992065,289.579437 
	C157.992065,291.204407 157.992065,292.510254 157.992172,294.738129 
M163.672485,315.987152 
	C160.135025,315.987152 156.597580,315.987152 152.539627,315.987152 
	C156.150879,319.737854 169.390045,319.638824 173.582260,315.292206 
	C170.560989,315.523651 167.539703,315.755127 163.672485,315.987152 
M388.852905,301.288818 
	C388.635406,306.416687 388.417908,311.544525 388.200409,316.672394 
	C389.667694,316.039795 390.520569,315.165466 390.552246,314.262390 
	C390.816437,306.725983 390.935760,299.184418 391.085388,291.644135 
	C391.157104,288.031952 390.316132,287.576172 387.067566,288.792725 
	C387.680603,292.779236 388.266632,296.590179 388.852905,301.288818 
M340.149750,318.726959 
	C342.954773,318.703552 346.331268,320.647308 348.568085,315.679260 
	C341.367676,317.139740 335.683319,315.433838 331.166260,310.245239 
	C332.118225,314.959106 335.066925,317.374573 340.149750,318.726959 
M203.604660,288.001892 
	C203.060043,288.863068 201.978210,289.779877 202.060684,290.576050 
	C202.493942,294.757416 203.411667,298.892975 203.748596,303.077667 
	C203.873917,304.633942 202.437057,306.295990 202.492935,307.882324 
	C202.590286,310.645874 203.292953,313.388092 203.820374,316.620209 
	C204.135956,316.141022 205.043930,315.398773 205.066681,314.630280 
	C205.321365,306.026245 205.449982,297.418304 205.542648,288.810638 
	C205.545303,288.563263 204.777130,288.307617 203.604660,288.001892 
M134.204193,304.210297 
	C131.172867,302.678192 128.141525,301.146057 124.558197,299.334930 
	C127.192833,306.948425 135.056671,306.014465 139.581924,309.936554 
	C139.923645,309.445099 140.265381,308.953644 140.607117,308.462189 
	C138.691330,307.167114 136.775543,305.872040 134.204193,304.210297 
M295.101257,289.076752 
	C292.202515,289.076752 289.303772,289.076752 286.405029,289.076752 
	C286.352997,289.315460 286.300934,289.554138 286.248901,289.792847 
	C290.764587,291.330048 295.280273,292.867279 299.882111,294.433807 
	C300.315308,291.442383 299.356323,289.413177 295.101257,289.076752 
M433.955658,298.626587 
	C433.955658,303.055573 433.955658,307.484558 433.955658,311.913544 
	C434.219025,311.912628 434.482422,311.911713 434.745789,311.910767 
	C434.745789,304.432526 434.745789,296.954285 434.745789,289.387024 
	C436.332245,289.123444 437.673218,288.900635 439.014191,288.677826 
	C438.980408,288.435913 438.946594,288.194000 438.912781,287.952087 
	C437.042633,288.064240 435.172455,288.176422 433.159973,288.297119 
	C433.458588,291.816010 433.707062,294.743988 433.955658,298.626587 
M146.406677,328.008545 
	C139.631973,328.008545 132.857285,328.008545 126.082581,328.008545 
	C126.089508,328.233124 126.096443,328.457672 126.103371,328.682251 
	C135.482407,328.682251 144.861450,328.682251 154.240479,328.682251 
	C154.240158,328.457672 154.239822,328.233124 154.239502,328.008545 
	C151.949692,328.008545 149.659897,328.008545 146.406677,328.008545 
M319.017181,301.508240 
	C319.017181,297.559479 319.017181,293.610687 319.017181,289.661926 
	C318.725647,289.665924 318.434113,289.669922 318.142578,289.673889 
	C318.142578,297.894318 318.142578,306.114746 318.142578,314.335175 
	C318.434113,314.340179 318.725647,314.345184 319.017181,314.350220 
	C319.017181,310.397827 319.017181,306.445465 319.017181,301.508240 
M282.756256,294.428589 
	C282.630554,293.510498 282.504883,292.592438 282.379181,291.674347 
	C281.354706,292.121948 280.330231,292.569580 278.331024,293.443054 
	C280.490417,294.186829 281.370117,294.489838 282.756256,294.428589 
M332.970947,298.499329 
	C333.307922,299.185883 333.644897,299.872406 333.981873,300.558960 
	C334.343689,300.437286 334.705536,300.315582 335.067352,300.193909 
	C334.765076,298.983002 334.462769,297.772095 334.160492,296.561188 
	C333.775116,296.967865 333.389740,297.374573 332.970947,298.499329 
M275.944336,302.811615 
	C276.030640,303.881500 276.116913,304.951416 276.203186,306.021301 
	C276.526276,305.988525 276.849335,305.955719 277.172424,305.922913 
	C276.953552,304.254211 276.734650,302.585510 276.515747,300.916809 
	C276.349335,301.148621 276.160126,301.368134 276.025696,301.617188 
	C275.954132,301.749756 275.977448,301.933472 275.944336,302.811615 
M314.639496,289.229828 
	C315.142059,289.022675 315.644592,288.815491 316.147125,288.608307 
	C316.082977,288.374695 316.018829,288.141083 315.954681,287.907471 
	C314.745148,288.108307 313.535645,288.309143 312.326141,288.509949 
	C312.361267,288.824615 312.396423,289.139252 312.431580,289.453888 
	C312.969177,289.453888 313.506775,289.453888 314.639496,289.229828 
M358.715515,303.922455 
	C358.226776,303.976166 357.738068,304.029877 357.249329,304.083557 
	C357.362152,304.518677 357.475006,304.953796 357.587860,305.388916 
	C358.005859,305.094391 358.423828,304.799866 358.715515,303.922455 
M144.524963,308.095886 
	C144.201218,307.644501 143.877472,307.193115 143.553711,306.741730 
	C143.339966,307.109192 143.126221,307.476624 142.912476,307.844055 
	C143.514557,308.118134 144.116638,308.392212 144.524963,308.095886 
M140.761169,313.184784 
	C140.744766,313.688202 140.728348,314.191620 140.711929,314.695038 
	C141.237778,314.491150 141.763641,314.287231 142.289490,314.083344 
	C141.979080,313.729187 141.668671,313.375000 140.761169,313.184784 
M354.190704,306.051758 
	C354.281647,306.436646 354.372589,306.821503 354.463501,307.206390 
	C354.580170,307.124023 354.804901,307.026520 354.795837,306.961792 
	C354.741028,306.571014 354.632751,306.187744 354.190704,306.051758 
M384.902954,311.182220 
	C384.889282,311.538727 384.814331,311.910767 384.898315,312.242523 
	C384.924438,312.345764 385.381165,312.339996 385.640717,312.384094 
	C385.570312,312.002136 385.499878,311.620209 384.902954,311.182220 
M199.612228,311.991699 
	C199.973434,312.088165 200.334656,312.184601 200.695862,312.281036 
	C200.679977,312.013306 200.707443,311.527191 200.641022,311.514008 
	C200.270660,311.440460 199.877563,311.481506 199.612228,311.991699 
M352.441284,313.835663 
	C352.555359,313.461823 352.669434,313.087982 352.783508,312.714142 
	C352.537781,312.674957 352.292084,312.635773 352.046356,312.596588 
	C351.986053,313.026581 351.925720,313.456543 352.441284,313.835663 
M218.220551,293.760651 
	C218.356186,293.940887 218.491837,294.121124 218.627472,294.301361 
	C218.596008,294.046204 218.564545,293.791046 218.220551,293.760651 
M330.209656,306.779938 
	C330.350128,306.967133 330.490631,307.154327 330.631134,307.341492 
	C330.598785,307.077576 330.566437,306.813629 330.209656,306.779938 
M353.258026,301.165009 
	C353.416260,301.113251 353.574463,301.061523 353.732697,301.009766 
	C353.573700,300.958801 353.414703,300.907806 353.258026,301.165009 
M216.752060,299.191742 
	C216.631760,299.028412 216.511444,298.865051 216.391144,298.701691 
	C216.416489,298.929108 216.441833,299.156525 216.752060,299.191742 
M354.467224,311.622131 
	C354.467224,311.622131 354.567413,311.447754 354.567413,311.447754 
	C354.567413,311.447754 354.363770,311.472748 354.467224,311.622131 
M280.630432,304.523407 
	C280.630432,304.523407 280.446747,304.420135 280.446747,304.420135 
	C280.446747,304.420135 280.474457,304.629883 280.630432,304.523407 
z"/>
<path fill="#E3E3E3" opacity="1.000000" stroke="none" 
	d="
M278.650696,311.126709 
	C281.466156,312.706329 284.281616,314.285950 287.525330,315.736328 
	C287.953552,315.607117 288.011963,315.652130 288.011963,315.652130 
	C292.336273,315.032623 296.660583,314.413116 301.982269,313.650757 
	C301.535797,314.724213 301.381317,316.472595 300.484009,317.034180 
	C293.633209,321.322083 282.711456,319.186646 278.119934,312.236237 
	C278.406647,311.465698 278.528687,311.296204 278.650696,311.126709 
z"/>
<path fill="#EEEEEE" opacity="1.000000" stroke="none" 
	d="
M340.956665,291.518127 
	C338.673431,292.521729 336.650635,293.795898 334.494019,295.154327 
	C334.311859,290.548859 336.469635,288.721405 340.778534,288.789093 
	C346.552887,288.879822 350.656494,292.354309 351.658508,297.279297 
	C348.629181,295.686310 344.923157,293.737488 340.956665,291.518127 
z"/>
<path fill="#EEEEEE" opacity="1.000000" stroke="none" 
	d="
M125.498596,317.834900 
	C124.193031,316.088165 123.277222,314.506226 122.361404,312.924316 
	C122.883675,312.377747 123.405952,311.831177 123.928223,311.284607 
	C125.416245,312.462219 126.738060,314.131348 128.430740,314.703735 
	C131.056122,315.591492 133.934280,315.731781 136.499527,316.154999 
	C136.499527,316.896698 136.499527,317.863312 136.499527,319.346100 
	C132.919739,318.891876 129.404037,318.445801 125.498596,317.834900 
z"/>
<path fill="#0C0C0C" opacity="1.000000" stroke="none" 
	d="
M157.992126,294.277100 
	C157.992065,292.510254 157.992065,291.204407 157.992065,289.579437 
	C156.267929,289.496216 154.922806,289.431305 153.541687,289.364655 
	C153.650360,288.939392 153.722534,288.401154 153.797653,288.400696 
	C155.405304,288.391907 157.072754,288.209625 158.592453,288.596191 
	C159.215805,288.754791 159.899063,290.160889 159.910797,291.008423 
	C160.013382,298.425354 159.970123,305.844360 159.970123,313.262726 
	C159.310806,313.288910 158.651489,313.315063 157.992172,313.341217 
	C157.992172,307.140198 157.992172,300.939148 157.992126,294.277100 
z"/>
<path fill="#EEEEEE" opacity="1.000000" stroke="none" 
	d="
M141.445419,295.828796 
	C137.260010,294.116394 133.074600,292.404022 128.315369,290.456848 
	C128.324112,290.440125 128.890442,288.391510 129.481949,288.384216 
	C132.701248,288.344482 136.077606,288.338715 139.083527,289.305237 
	C140.488571,289.756989 141.181580,292.423187 141.976379,294.717529 
	C141.652084,295.509125 141.548752,295.668976 141.445419,295.828796 
z"/>
<path fill="#F4F4F4" opacity="1.000000" stroke="none" 
	d="
M164.095459,315.986877 
	C167.539703,315.755127 170.560989,315.523651 173.582260,315.292206 
	C169.390045,319.638824 156.150879,319.737854 152.539627,315.987152 
	C156.597580,315.987152 160.135025,315.987152 164.095459,315.986877 
z"/>
<path fill="#222222" opacity="1.000000" stroke="none" 
	d="
M388.852783,300.844971 
	C388.266632,296.590179 387.680603,292.779236 387.067566,288.792725 
	C390.316132,287.576172 391.157104,288.031952 391.085388,291.644135 
	C390.935760,299.184418 390.816437,306.725983 390.552246,314.262390 
	C390.520569,315.165466 389.667694,316.039795 388.200409,316.672394 
	C388.417908,311.544525 388.635406,306.416687 388.852783,300.844971 
z"/>
<path fill="#E8E8E8" opacity="1.000000" stroke="none" 
	d="
M339.862305,318.427551 
	C335.066925,317.374573 332.118225,314.959106 331.166260,310.245239 
	C335.683319,315.433838 341.367676,317.139740 348.568085,315.679260 
	C346.331268,320.647308 342.954773,318.703552 339.862305,318.427551 
z"/>
<path fill="#222222" opacity="1.000000" stroke="none" 
	d="
M203.986511,288.028870 
	C204.777130,288.307617 205.545303,288.563263 205.542648,288.810638 
	C205.449982,297.418304 205.321365,306.026245 205.066681,314.630280 
	C205.043930,315.398773 204.135956,316.141022 203.820374,316.620209 
	C203.292953,313.388092 202.590286,310.645874 202.492935,307.882324 
	C202.437057,306.295990 203.873917,304.633942 203.748596,303.077667 
	C203.411667,298.892975 202.493942,294.757416 202.060684,290.576050 
	C201.978210,289.779877 203.060043,288.863068 203.986511,288.028870 
z"/>
<path fill="#9F9F9F" opacity="1.000000" stroke="none" 
	d="
M371.006226,298.048035 
	C371.006195,303.587738 371.006195,309.127441 371.006195,314.667145 
	C370.479523,314.711548 369.952850,314.755951 369.426208,314.800354 
	C369.262817,313.033295 369.045532,311.269287 368.945831,309.498657 
	C368.614410,303.612152 368.325195,297.723267 368.328491,291.244690 
	C369.094940,290.763184 369.552704,290.872314 370.010468,290.981476 
	C370.646088,292.081360 371.281708,293.181213 371.669739,294.760864 
	C371.283478,296.176453 371.144836,297.112244 371.006226,298.048035 
z"/>
<path fill="#9F9F9F" opacity="1.000000" stroke="none" 
	d="
M186.006973,300.052246 
	C186.006973,304.925873 186.006973,309.799469 186.006973,314.673096 
	C185.468948,314.687653 184.930923,314.702209 184.392914,314.716766 
	C184.025833,306.899139 183.658752,299.081543 183.887405,290.966766 
	C184.658951,290.773590 184.834747,290.877594 185.010529,290.981567 
	C185.274002,291.805023 185.537491,292.628448 185.932129,294.198486 
	C186.044510,296.647430 186.025742,298.349854 186.006973,300.052246 
z"/>
<path fill="#E8E8E8" opacity="1.000000" stroke="none" 
	d="
M229.726547,316.565613 
	C227.028107,319.896027 221.224792,320.160675 216.692078,316.840485 
	C215.797775,316.185425 215.750687,314.373718 215.554108,313.799713 
	C220.382019,314.661926 224.593475,315.414062 229.249008,316.323334 
	C229.693085,316.480469 229.726547,316.565613 229.726547,316.565613 
z"/>
<path fill="#EEEEEE" opacity="1.000000" stroke="none" 
	d="
M134.531982,304.393616 
	C136.775543,305.872040 138.691330,307.167114 140.607117,308.462189 
	C140.265381,308.953644 139.923645,309.445099 139.581924,309.936554 
	C135.056671,306.014465 127.192833,306.948425 124.558197,299.334930 
	C128.141525,301.146057 131.172867,302.678192 134.531982,304.393616 
z"/>
<path fill="#F4F4F4" opacity="1.000000" stroke="none" 
	d="
M295.535889,289.077545 
	C299.356323,289.413177 300.315308,291.442383 299.882111,294.433807 
	C295.280273,292.867279 290.764587,291.330048 286.248901,289.792847 
	C286.300934,289.554138 286.352997,289.315460 286.405029,289.076752 
	C289.303772,289.076752 292.202515,289.076752 295.535889,289.077545 
z"/>
<path fill="#EEEEEE" opacity="1.000000" stroke="none" 
	d="
M229.988510,313.030396 
	C228.422638,311.036438 227.167938,308.632446 225.214050,307.149841 
	C222.631027,305.189819 219.500412,303.951477 217.130737,301.579285 
	C221.915344,304.642090 230.015945,302.991516 231.140533,311.872559 
	C230.661621,312.712250 230.325073,312.871307 229.988510,313.030396 
z"/>
<path fill="#F4F4F4" opacity="1.000000" stroke="none" 
	d="
M170.932465,294.074768 
	C167.700241,292.955139 164.468018,291.835480 159.781311,290.212006 
	C164.388992,289.625275 167.511963,289.227600 169.664749,288.953461 
	C170.098053,290.024475 170.661423,291.416992 171.258362,293.267303 
	C171.172104,293.841644 171.052292,293.958221 170.932465,294.074768 
z"/>
<path fill="#0C0C0C" opacity="1.000000" stroke="none" 
	d="
M433.955566,298.149292 
	C433.707062,294.743988 433.458588,291.816010 433.159973,288.297119 
	C435.172455,288.176422 437.042633,288.064240 438.912781,287.952087 
	C438.946594,288.194000 438.980408,288.435913 439.014191,288.677826 
	C437.673218,288.900635 436.332245,289.123444 434.745789,289.387024 
	C434.745789,296.954285 434.745789,304.432526 434.745789,311.910767 
	C434.482422,311.911713 434.219025,311.912628 433.955658,311.913544 
	C433.955658,307.484558 433.955658,303.055573 433.955566,298.149292 
z"/>
<path fill="#E8E8E8" opacity="1.000000" stroke="none" 
	d="
M371.342407,298.136230 
	C371.144836,297.112244 371.283478,296.176453 371.748779,295.090027 
	C374.979218,298.546631 377.882996,302.153809 380.786743,305.761017 
	C380.288910,306.183350 379.791077,306.605682 379.293243,307.028015 
	C376.755035,304.093475 374.216827,301.158936 371.342407,298.136230 
z"/>
<path fill="#424242" opacity="1.000000" stroke="none" 
	d="
M146.888382,328.008545 
	C149.659897,328.008545 151.949692,328.008545 154.239502,328.008545 
	C154.239822,328.233124 154.240158,328.457672 154.240479,328.682251 
	C144.861450,328.682251 135.482407,328.682251 126.103371,328.682251 
	C126.096443,328.457672 126.089508,328.233124 126.082581,328.008545 
	C132.857285,328.008545 139.631973,328.008545 146.888382,328.008545 
z"/>
<path fill="#F4F4F4" opacity="1.000000" stroke="none" 
	d="
M319.017181,302.000671 
	C319.017181,306.445465 319.017181,310.397827 319.017181,314.350220 
	C318.725647,314.345184 318.434113,314.340179 318.142578,314.335175 
	C318.142578,306.114746 318.142578,297.894318 318.142578,289.673889 
	C318.434113,289.669922 318.725647,289.665924 319.017181,289.661926 
	C319.017181,293.610687 319.017181,297.559479 319.017181,302.000671 
z"/>
<path fill="#F4F4F4" opacity="1.000000" stroke="none" 
	d="
M231.925415,295.082397 
	C229.010559,293.559631 226.095703,292.036896 223.108078,290.476135 
	C227.809509,287.446625 230.331055,289.900574 232.300262,294.285583 
	C232.182266,294.848053 232.053848,294.965240 231.925415,295.082397 
z"/>
<path fill="#E8E8E8" opacity="1.000000" stroke="none" 
	d="
M186.327728,299.985901 
	C186.025742,298.349854 186.044510,296.647430 186.026886,294.521301 
	C188.296783,296.785583 190.603058,299.473541 192.706085,302.527283 
	C192.300598,302.965668 192.098343,303.038330 191.896072,303.111023 
	C191.218002,302.609680 190.574829,302.049652 189.853561,301.620972 
	C188.814972,301.003754 187.719604,300.482056 186.327728,299.985901 
z"/>
<path fill="#141414" opacity="1.000000" stroke="none" 
	d="
M282.503021,294.610718 
	C281.370117,294.489838 280.490417,294.186829 278.331024,293.443054 
	C280.330231,292.569580 281.354706,292.121948 282.379181,291.674347 
	C282.504883,292.592438 282.630554,293.510498 282.503021,294.610718 
z"/>
<path fill="#111111" opacity="1.000000" stroke="none" 
	d="
M332.987671,298.140320 
	C333.389740,297.374573 333.775116,296.967865 334.160492,296.561188 
	C334.462769,297.772095 334.765076,298.983002 335.067352,300.193909 
	C334.705536,300.315582 334.343689,300.437286 333.981873,300.558960 
	C333.644897,299.872406 333.307922,299.185883 332.987671,298.140320 
z"/>
<path fill="#111111" opacity="1.000000" stroke="none" 
	d="
M229.959610,313.462372 
	C230.325073,312.871307 230.661621,312.712250 231.151184,312.265594 
	C231.680801,311.983002 232.057404,311.987976 232.717010,311.996490 
	C233.000000,312.000000 233.001221,312.001221 233.001221,312.001221 
	C232.107788,313.365265 231.214371,314.729340 230.023743,316.329498 
	C229.726547,316.565613 229.693085,316.480469 229.645142,316.479675 
	C229.708374,315.617371 229.819550,314.755859 229.959610,313.462372 
z"/>
<path fill="#222222" opacity="1.000000" stroke="none" 
	d="
M370.076233,290.678680 
	C369.552704,290.872314 369.094940,290.763184 368.313446,290.817688 
	C368.654999,289.849213 369.320312,288.717072 369.985626,287.584930 
	C370.374634,287.819153 370.763672,288.053375 371.152679,288.287598 
	C370.815796,288.983673 370.478912,289.679779 370.076233,290.678680 
z"/>
<path fill="#222222" opacity="1.000000" stroke="none" 
	d="
M185.074829,290.684814 
	C184.834747,290.877594 184.658951,290.773590 184.177353,290.688354 
	C184.215378,289.718475 184.559174,288.729797 184.902985,287.741150 
	C185.328156,287.948059 185.753326,288.154999 186.178497,288.361908 
	C185.832047,289.037292 185.485596,289.712677 185.074829,290.684814 
z"/>
<path fill="#141414" opacity="1.000000" stroke="none" 
	d="
M275.951141,302.452881 
	C275.977448,301.933472 275.954132,301.749756 276.025696,301.617188 
	C276.160126,301.368134 276.349335,301.148621 276.515747,300.916809 
	C276.734650,302.585510 276.953552,304.254211 277.172424,305.922913 
	C276.849335,305.955719 276.526276,305.988525 276.203186,306.021301 
	C276.116913,304.951416 276.030640,303.881500 275.951141,302.452881 
z"/>
<path fill="#111111" opacity="1.000000" stroke="none" 
	d="
M314.341919,289.341858 
	C313.506775,289.453888 312.969177,289.453888 312.431580,289.453888 
	C312.396423,289.139252 312.361267,288.824615 312.326141,288.509949 
	C313.535645,288.309143 314.745148,288.108307 315.954681,287.907471 
	C316.018829,288.141083 316.082977,288.374695 316.147125,288.608307 
	C315.644592,288.815491 315.142059,289.022675 314.341919,289.341858 
z"/>
<path fill="#010101" opacity="1.000000" stroke="none" 
	d="
M358.778687,304.213928 
	C358.423828,304.799866 358.005859,305.094391 357.587860,305.388916 
	C357.475006,304.953796 357.362152,304.518677 357.249329,304.083557 
	C357.738068,304.029877 358.226776,303.976166 358.778687,304.213928 
z"/>
<path fill="#111111" opacity="1.000000" stroke="none" 
	d="
M144.621841,308.381104 
	C144.116638,308.392212 143.514557,308.118134 142.912476,307.844055 
	C143.126221,307.476624 143.339966,307.109192 143.553711,306.741730 
	C143.877472,307.193115 144.201218,307.644501 144.621841,308.381104 
z"/>
<path fill="#111111" opacity="1.000000" stroke="none" 
	d="
M141.059723,313.102783 
	C141.668671,313.375000 141.979080,313.729187 142.289490,314.083344 
	C141.763641,314.287231 141.237778,314.491150 140.711929,314.695038 
	C140.728348,314.191620 140.744766,313.688202 141.059723,313.102783 
z"/>
<path fill="#EEEEEE" opacity="1.000000" stroke="none" 
	d="
M401.701843,312.900879 
	C401.782227,312.365601 401.862579,311.830292 401.942963,311.295013 
	C402.292389,311.355133 402.641846,311.415222 402.991302,311.475342 
	C402.676758,312.553741 402.362213,313.632172 401.937378,314.113281 
	C401.785339,313.310944 401.743591,313.105927 401.701843,312.900879 
z"/>
<path fill="#E8E8E8" opacity="1.000000" stroke="none" 
	d="
M193.380646,303.079987 
	C194.105331,303.980377 194.830032,304.880768 195.554718,305.781158 
	C195.300034,306.038239 195.045334,306.295319 194.790634,306.552399 
	C194.187912,306.015167 193.585175,305.477905 193.087631,304.274811 
	C193.255432,303.432617 193.318024,303.256287 193.380646,303.079987 
z"/>
<path fill="#E3E3E3" opacity="1.000000" stroke="none" 
	d="
M278.082336,311.874512 
	C277.506134,311.281921 277.132141,310.450043 276.758118,309.618134 
	C277.014343,309.487000 277.270569,309.355835 277.526764,309.224701 
	C277.809052,309.677979 278.091309,310.131287 278.512146,310.855652 
	C278.528687,311.296204 278.406647,311.465698 278.082336,311.874512 
z"/>
<path fill="#010101" opacity="1.000000" stroke="none" 
	d="
M354.366516,305.926849 
	C354.632751,306.187744 354.741028,306.571014 354.795837,306.961792 
	C354.804901,307.026520 354.580170,307.124023 354.463501,307.206390 
	C354.372589,306.821503 354.281647,306.436646 354.366516,305.926849 
z"/>
<path fill="#222222" opacity="1.000000" stroke="none" 
	d="
M385.166199,311.210236 
	C385.499878,311.620209 385.570312,312.002136 385.640747,312.384094 
	C385.381165,312.339996 384.924438,312.345764 384.898315,312.242523 
	C384.814331,311.910767 384.889282,311.538727 385.166199,311.210236 
z"/>
<path fill="#222222" opacity="1.000000" stroke="none" 
	d="
M199.552231,311.737518 
	C199.877563,311.481506 200.270660,311.440460 200.641022,311.514008 
	C200.707443,311.527191 200.679977,312.013306 200.695862,312.281036 
	C200.334656,312.184601 199.973434,312.088165 199.552231,311.737518 
z"/>
<path fill="#424242" opacity="1.000000" stroke="none" 
	d="
M352.153351,313.861084 
	C351.925720,313.456543 351.986053,313.026581 352.046356,312.596588 
	C352.292084,312.635773 352.537781,312.674957 352.783508,312.714142 
	C352.669434,313.087982 352.555359,313.461823 352.153351,313.861084 
z"/>
<path fill="#F4F4F4" opacity="1.000000" stroke="none" 
	d="
M171.479446,293.558655 
	C172.159409,294.028290 172.651840,294.664368 173.144272,295.300446 
	C172.964203,295.489563 172.784149,295.678680 172.604080,295.867828 
	C172.113846,295.471954 171.623611,295.076111 171.032928,294.377502 
	C171.052292,293.958221 171.172104,293.841644 171.479446,293.558655 
z"/>
<path fill="#F4F4F4" opacity="1.000000" stroke="none" 
	d="
M232.513229,294.566589 
	C233.190262,295.045685 233.664749,295.689056 234.139252,296.332458 
	C233.958801,296.515320 233.778366,296.698151 233.597931,296.881012 
	C233.109695,296.481476 232.621475,296.081970 232.029327,295.382416 
	C232.053848,294.965240 232.182266,294.848053 232.513229,294.566589 
z"/>
<path fill="#424242" opacity="1.000000" stroke="none" 
	d="
M401.427551,312.885193 
	C401.743591,313.105927 401.785339,313.310944 401.733795,313.815674 
	C401.242096,313.980499 400.843719,313.845642 400.445312,313.710785 
	C400.681305,313.430359 400.917297,313.149933 401.427551,312.885193 
z"/>
<path fill="#EEEEEE" opacity="1.000000" stroke="none" 
	d="
M141.930908,295.124146 
	C142.350235,295.469910 142.594055,296.040771 142.837860,296.611664 
	C142.500046,296.500427 142.162231,296.389191 141.634918,296.053375 
	C141.548752,295.668976 141.652084,295.509125 141.930908,295.124146 
z"/>
<path fill="#111111" opacity="1.000000" stroke="none" 
	d="
M232.999695,311.999390 
	C233.350555,311.745789 233.701721,311.492798 234.052887,311.239777 
	C234.142151,311.365814 234.231430,311.491821 234.320709,311.617798 
	C234.043625,311.742615 233.766525,311.867401 233.245331,311.996704 
	C233.001221,312.001221 233.000000,312.000000 232.999695,311.999390 
z"/>
<path fill="#111111" opacity="1.000000" stroke="none" 
	d="
M218.376816,293.648254 
	C218.564545,293.791046 218.596008,294.046204 218.627472,294.301361 
	C218.491837,294.121124 218.356186,293.940887 218.376816,293.648254 
z"/>
<path fill="#111111" opacity="1.000000" stroke="none" 
	d="
M330.371887,306.664825 
	C330.566437,306.813629 330.598785,307.077576 330.631134,307.341492 
	C330.490631,307.154327 330.350128,306.967133 330.371887,306.664825 
z"/>
<path fill="#010101" opacity="1.000000" stroke="none" 
	d="
M353.256866,301.010925 
	C353.414703,300.907806 353.573700,300.958801 353.732697,301.009766 
	C353.574463,301.061523 353.416260,301.113251 353.256866,301.010925 
z"/>
<path fill="#111111" opacity="1.000000" stroke="none" 
	d="
M216.609619,299.287842 
	C216.441833,299.156525 216.416489,298.929108 216.391144,298.701691 
	C216.511444,298.865051 216.631760,299.028412 216.609619,299.287842 
z"/>
<path fill="#424242" opacity="1.000000" stroke="none" 
	d="
M354.415497,311.547424 
	C354.363770,311.472748 354.567413,311.447754 354.567413,311.447754 
	C354.567413,311.447754 354.467224,311.622131 354.415497,311.547424 
z"/>
<path fill="#E8E8E8" opacity="1.000000" stroke="none" 
	d="
M382.505859,308.188690 
	C382.380127,308.681183 382.254395,309.173676 382.176819,309.157776 
	C382.318634,308.495819 382.412262,308.342255 382.505859,308.188690 
z"/>
<path fill="#E8E8E8" opacity="1.000000" stroke="none" 
	d="
M197.507797,308.190430 
	C197.381439,308.682404 197.255081,309.174377 197.177368,309.158325 
	C197.319931,308.497040 197.413864,308.343719 197.507797,308.190430 
z"/>
<path fill="#E8E8E8" opacity="1.000000" stroke="none" 
	d="
M382.067566,308.868347 
	C381.621521,308.923615 381.332947,308.759888 380.930481,307.909241 
	C380.527252,307.165192 380.237946,307.108063 379.948608,307.050964 
	C380.593292,307.097778 381.237976,307.144562 382.194275,307.690033 
	C382.412262,308.342255 382.318634,308.495819 382.067566,308.868347 
z"/>
<path fill="#E8E8E8" opacity="1.000000" stroke="none" 
	d="
M194.949692,307.049622 
	C195.594467,307.097382 196.239258,307.145172 197.195923,307.691681 
	C197.413864,308.343719 197.319931,308.497040 197.068344,308.869141 
	C196.621964,308.924072 196.333252,308.760193 195.931030,307.909180 
	C195.528244,307.164581 195.238968,307.107086 194.949692,307.049622 
z"/>
<path fill="#E8E8E8" opacity="1.000000" stroke="none" 
	d="
M380.854431,307.663025 
	C380.561371,307.797485 380.230469,307.491241 379.924072,307.117981 
	C380.237946,307.108063 380.527252,307.165192 380.854431,307.663025 
z"/>
<path fill="#E8E8E8" opacity="1.000000" stroke="none" 
	d="
M195.854950,307.662842 
	C195.561569,307.796783 195.230789,307.489868 194.924850,307.116302 
	C195.238968,307.107086 195.528244,307.164581 195.854950,307.662842 
z"/>
<path fill="#141414" opacity="1.000000" stroke="none" 
	d="
M287.906128,315.410889 
	C288.011963,315.652130 287.953552,315.607117 287.969971,315.636658 
	C287.818329,315.426208 287.650269,315.186188 287.482239,314.946167 
	C287.588257,315.020660 287.694275,315.095154 287.906128,315.410889 
z"/>
<path fill="#141414" opacity="1.000000" stroke="none" 
	d="
M280.552429,304.576660 
	C280.474457,304.629883 280.446747,304.420135 280.446747,304.420135 
	C280.446747,304.420135 280.630432,304.523407 280.552429,304.576660 
z"/>
<path fill="#E8E8E8" opacity="1.000000" stroke="none" 
	d="
M193.049164,303.850037 
	C192.619049,303.927551 192.332596,303.763977 191.971100,303.355713 
	C192.098343,303.038330 192.300598,302.965668 192.826965,302.889282 
	C193.151077,302.885559 193.295380,303.018524 193.338013,303.049255 
	C193.318024,303.256287 193.255432,303.432617 193.049164,303.850037 
z"/>
</svg>